<?xml version="1.0" encoding="utf-8"?>
<!-- Generator: Adobe Illustrator 24.3.0, SVG Export Plug-In . SVG Version: 6.00 Build 0)  -->
<svg version="1.1" id="Layer_1" xmlns="http://www.w3.org/2000/svg" xmlns:xlink="http://www.w3.org/1999/xlink" x="0px" y="0px"
	 viewBox="0 0 750 750" style="enable-background:new 0 0 750 750;" xml:space="preserve">
<style type="text/css">
	.st0{fill:url(#SVGID_1_);}
</style>
<linearGradient id="SVGID_1_" gradientUnits="userSpaceOnUse" x1="13.8833" y1="736.1166" x2="736.1145" y2="13.8854">
	<stop  offset="3.409785e-07" style="stop-color:#36B2E6"/>
	<stop  offset="0.9687" style="stop-color:#5283C3"/>
</linearGradient>
<path class="st0" d="M512.45,8.46c-3.09,0-6.17,0.06-9.24,0.18V8.46H512.45z M503.21,8.46v0.18c3.07-0.12,6.15-0.18,9.24-0.18
	H503.21z M740.74,524.33c-14.8,11.79-30.52,22.47-47.07,31.89c-30.49,17.39-63.71,30.51-98.87,38.58
	c-8.53,1.96-17.17,3.62-25.9,4.96c-18.41,2.85-37.26,4.33-56.45,4.33c-101.04,0-192.55-40.89-258.86-107.04
	c-0.3-0.31-0.63-0.63-0.92-0.94c-65.98-66.28-106.76-157.66-106.76-258.56c0-15.33,0.94-30.43,2.76-45.27v-0.29
	c0-4.46,0.65-8.76,1.86-12.83c0.11-0.69,0.23-1.4,0.36-2.09c1.21-7.36,2.65-14.65,4.31-21.87c8.07-35.16,21.19-68.38,38.58-98.87
	c9.59-16.84,20.48-32.84,32.52-47.87h-9.93c-16.94,0-33.42,2.05-49.22,5.93c-37.5,9.19-71.11,28.63-97.61,55.15
	C31.85,107.21,8.46,159.2,8.46,216.37v506.69c0,4.94,1.96,9.42,5.14,12.77c0.4,0.41,0.83,0.83,1.28,1.21
	c3.25,2.81,7.47,4.5,12.06,4.5h506.69c57.17,0,109.16-23.39,146.83-61.08c26.38-26.37,45.76-59.75,55.01-97.02
	c3.96-15.98,6.07-32.65,6.07-49.81v-9.32c-0.17,0.02-0.35,0.02-0.52,0.02H740.74z M735.12,12.96c-0.11-0.1-0.22-0.19-0.33-0.27
	c-3.2-2.64-7.3-4.23-11.73-4.23H512.45c-3.09,0-6.17,0.06-9.24,0.18V8.46H330.18c-49.76,62.57-79.48,141.78-79.48,227.93
	c0,56.03,12.57,109.12,35.05,156.6c0.36,0.48,0.71,0.95,1.08,1.43l53.8-53.79L474.5,206.76c-2.1-7.67-3.24-15.74-3.24-24.09
	c0-24.93,10.1-47.51,26.44-63.85c16.34-16.34,38.92-26.44,63.84-26.44c25.84,0,49.15,10.86,65.6,28.26
	c15.31,16.17,24.69,38.01,24.69,62.03c0,49.86-40.43,90.28-90.29,90.28c-8.14,0-16.02-1.07-23.52-3.11l-134.08,134.1l-54.26,54.24
	c0.76,0.6,1.53,1.2,2.3,1.79c49,24.31,104.21,37.98,162.63,37.98c85.7,0,164.53-29.41,226.93-78.69V26.94
	C741.54,21.37,739.05,16.36,735.12,12.96z"/>
</svg>
